# xmcd
#
# Track frame offsets:
#	150
#	16387
#	36382
#	55137
#	71707
#	86604
#	105354
#	122262
#	137182
#	153285
#	173272
#	191972
#	208437
#	223337
#	242075
#	258945
#	285170
#
# Disc length: 3814 seconds
#
# Revision: 1
# Processed by: cddbd v1.5.2PL0 Copyright (c) Steve Scherf et al.
# Submitted via: audiograbber 1.83.01
#
DISCID=f20ee411
DTITLE=Sound Choice - SC2123
DYEAR=1900
DGENRE=Karaoke
TTITLE0=Alabama - We Can't love Like This Anymore
TTITLE1=Alabama - Angels Among Us
TTITLE2=Alabama - Cheap Seats
TTITLE3=Alabama - In Pictures
TTITLE4=Alabama - Say I
TTITLE5=Alabama - Mountain Music
TTITLE6=Alabama - Give Me One More Shot
TTITLE7=Alabama - She Ain't Your Ordinary Girl
TTITLE8=Alabama - We Can't Love Like This Anymore (Vocal Version)
TTITLE9=Alabama - Angels Among Us (Vocal Version)
TTITLE10=Alabama - Cheap Seats (Vocal Version)
TTITLE11=Alabama - In Pictures (Vocal Version)
TTITLE12=Alabama - Say I (Vocal Version)
TTITLE13=Alabama - Mountain Music (Vocal Version)
TTITLE14=Alabama - Give Me One More Shot (Vocal Version)
TTITLE15=Alabama - She Ain't Your Ordinary Girl (Vocal Version)
TTITLE16=Data Track - Data Track
EXTD=
EXTT0=
EXTT1=
EXTT2=
EXTT3=
EXTT4=
EXTT5=
EXTT6=
EXTT7=
EXTT8=
EXTT9=
EXTT10=
EXTT11=
EXTT12=
EXTT13=
EXTT14=
EXTT15=
EXTT16=
PLAYORDER=
